<?xml version="1.0"?>
<svg xmlns="http://www.w3.org/2000/svg" xmlns:xlink="http://www.w3.org/1999/xlink" version="1.1" viewBox="0 0 192 192" width="50px" height="50px"><g transform="translate(5.664,5.664) scale(0.941,0.941)"><g fill="none" fill-rule="nonzero" stroke="none" stroke-width="none" stroke-linecap="butt" stroke-linejoin="none" stroke-miterlimit="10" stroke-dasharray="" stroke-dashoffset="0" font-family="none" font-weight="none" font-size="none" text-anchor="none" style="mix-blend-mode: normal"><g fill="#ffad00" stroke="#ffad00" stroke-width="12" stroke-linejoin="round"><g id="surface1 1"><path d="M192,28.8v19.2h-192v-19.2zM192,86.4v19.2h-192v-19.2zM192,144v19.2h-192v-19.2z"/></g></g><path d="M0,192v-192h192v192z" fill="none" stroke="none" stroke-width="1" stroke-linejoin="miter"/><g fill="#ffad00" stroke="none" stroke-width="1" stroke-linejoin="miter"><g id="surface1"><path d="M0,28.8v19.2h192v-19.2zM0,86.4v19.2h192v-19.2zM0,144v19.2h192v-19.2z"/></g></g><path d="" fill="none" stroke="none" stroke-width="1" stroke-linejoin="miter"/><path d="" fill="none" stroke="none" stroke-width="1" stroke-linejoin="miter"/><path d="M0,192v-192h192v192z" fill="none" stroke="none" stroke-width="1" stroke-linejoin="miter"/><path d="M3.84,188.16v-184.32h184.32v184.32z" fill="none" stroke="none" stroke-width="1" stroke-linejoin="miter"/><path d="M0,192v-192h192v192z" fill="none" stroke="none" stroke-width="1" stroke-linejoin="miter"/><path d="M3.84,188.16v-184.32h184.32v184.32z" fill="none" stroke="none" stroke-width="1" stroke-linejoin="miter"/><path d="M0,192v-192h192v192z" fill="none" stroke="none" stroke-width="1" stroke-linejoin="miter"/><path d="M3.84,188.16v-184.32h184.32v184.32z" fill="none" stroke="none" stroke-width="1" stroke-linejoin="miter"/><path d="M0,192v-192h192v192z" fill="none" stroke="none" stroke-width="1" stroke-linejoin="miter"/><path d="M3.84,188.16v-184.32h184.32v184.32z" fill="none" stroke="none" stroke-width="1" stroke-linejoin="miter"/><path d="M0,192v-192h192v192z" fill="none" stroke="none" stroke-width="1" stroke-linejoin="miter"/><path d="M3.84,188.16v-184.32h184.32v184.32z" fill="none" stroke="none" stroke-width="1" stroke-linejoin="miter"/><path d="M0,192v-192h192v192z" fill="none" stroke="none" stroke-width="1" stroke-linejoin="miter"/><path d="M3.84,188.16v-184.32h184.32v184.32z" fill="none" stroke="none" stroke-width="1" stroke-linejoin="miter"/><path d="M0,192v-192h192v192z" fill="none" stroke="none" stroke-width="1" stroke-linejoin="miter"/><path d="M3.84,188.16v-184.32h184.32v184.32z" fill="none" stroke="none" stroke-width="1" stroke-linejoin="miter"/><path d="M0,192v-192h192v192z" fill="none" stroke="none" stroke-width="1" stroke-linejoin="miter"/><path d="M3.84,188.16v-184.32h184.32v184.32z" fill="none" stroke="none" stroke-width="1" stroke-linejoin="miter"/><path d="M0,192v-192h192v192z" fill="none" stroke="none" stroke-width="1" stroke-linejoin="miter"/><path d="M3.84,188.16v-184.32h184.32v184.32z" fill="none" stroke="none" stroke-width="1" stroke-linejoin="miter"/><path d="M0,192v-192h192v192z" fill="none" stroke="none" stroke-width="1" stroke-linejoin="miter"/><path d="M3.84,188.16v-184.32h184.32v184.32z" fill="none" stroke="none" stroke-width="1" stroke-linejoin="miter"/><path d="M0,192v-192h192v192z" fill="none" stroke="none" stroke-width="1" stroke-linejoin="miter"/><path d="M3.84,188.16v-184.32h184.32v184.32z" fill="none" stroke="none" stroke-width="1" stroke-linejoin="miter"/><path d="M0,192v-192h192v192z" fill="none" stroke="none" stroke-width="1" stroke-linejoin="miter"/><path d="M3.84,188.16v-184.32h184.32v184.32z" fill="none" stroke="none" stroke-width="1" stroke-linejoin="miter"/><path d="M0,192v-192h192v192z" fill="none" stroke="none" stroke-width="1" stroke-linejoin="miter"/><path d="M3.84,188.16v-184.32h184.32v184.32z" fill="none" stroke="none" stroke-width="1" stroke-linejoin="miter"/><path d="M0,192v-192h192v192z" fill="none" stroke="none" stroke-width="1" stroke-linejoin="miter"/><path d="M3.84,188.16v-184.32h184.32v184.32z" fill="none" stroke="none" stroke-width="1" stroke-linejoin="miter"/><path d="M0,192v-192h192v192z" fill="none" stroke="none" stroke-width="1" stroke-linejoin="miter"/><path d="M3.84,188.16v-184.32h184.32v184.32z" fill="none" stroke="none" stroke-width="1" stroke-linejoin="miter"/><path d="M0,192v-192h192v192z" fill="none" stroke="none" stroke-width="1" stroke-linejoin="miter"/><path d="M3.84,188.16v-184.32h184.32v184.32z" fill="none" stroke="none" stroke-width="1" stroke-linejoin="miter"/><path d="M0,192v-192h192v192z" fill="none" stroke="none" stroke-width="1" stroke-linejoin="miter"/><path d="M3.84,188.16v-184.32h184.32v184.32z" fill="none" stroke="none" stroke-width="1" stroke-linejoin="miter"/><path d="M0,192v-192h192v192z" fill="none" stroke="none" stroke-width="1" stroke-linejoin="miter"/><path d="M3.84,188.16v-184.32h184.32v184.32z" fill="none" stroke="none" stroke-width="1" stroke-linejoin="miter"/><path d="M0,192v-192h192v192z" fill="none" stroke="none" stroke-width="1" stroke-linejoin="miter"/><path d="M3.84,188.16v-184.32h184.32v184.32z" fill="none" stroke="none" stroke-width="1" stroke-linejoin="miter"/><path d="M0,192v-192h192v192z" fill="none" stroke="none" stroke-width="1" stroke-linejoin="miter"/><path d="M3.84,188.16v-184.32h184.32v184.32z" fill="none" stroke="none" stroke-width="1" stroke-linejoin="miter"/><path d="M0,192v-192h192v192z" fill="none" stroke="none" stroke-width="1" stroke-linejoin="miter"/><path d="M3.84,188.16v-184.32h184.32v184.32z" fill="none" stroke="none" stroke-width="1" stroke-linejoin="miter"/><path d="M0,192v-192h192v192z" fill="none" stroke="none" stroke-width="1" stroke-linejoin="miter"/><path d="M3.84,188.16v-184.32h184.32v184.32z" fill="none" stroke="none" stroke-width="1" stroke-linejoin="miter"/><path d="M0,192v-192h192v192z" fill="none" stroke="none" stroke-width="1" stroke-linejoin="miter"/><path d="M3.84,188.16v-184.32h184.32v184.32z" fill="none" stroke="none" stroke-width="1" stroke-linejoin="miter"/><path d="M0,192v-192h192v192z" fill="none" stroke="none" stroke-width="1" stroke-linejoin="miter"/><path d="M3.84,188.16v-184.32h184.32v184.32z" fill="none" stroke="none" stroke-width="1" stroke-linejoin="miter"/><path d="M0,192v-192h192v192z" fill="none" stroke="none" stroke-width="1" stroke-linejoin="miter"/><path d="M3.84,188.16v-184.32h184.32v184.32z" fill="none" stroke="none" stroke-width="1" stroke-linejoin="miter"/><path d="M0,192v-192h192v192z" fill="none" stroke="none" stroke-width="1" stroke-linejoin="miter"/><path d="M3.84,188.16v-184.32h184.32v184.32z" fill="none" stroke="none" stroke-width="1" stroke-linejoin="miter"/><path d="M0,192v-192h192v192z" fill="none" stroke="none" stroke-width="1" stroke-linejoin="miter"/><path d="M3.84,188.16v-184.32h184.32v184.32z" fill="none" stroke="none" stroke-width="1" stroke-linejoin="miter"/><path d="M0,192v-192h192v192z" fill="none" stroke="none" stroke-width="1" stroke-linejoin="miter"/><path d="M3.84,188.16v-184.32h184.32v184.32z" fill="none" stroke="none" stroke-width="1" stroke-linejoin="miter"/><path d="M0,192v-192h192v192z" fill="none" stroke="none" stroke-width="1" stroke-linejoin="miter"/><path d="M3.84,188.16v-184.32h184.32v184.32z" fill="none" stroke="none" stroke-width="1" stroke-linejoin="miter"/><path d="M0,192v-192h192v192z" fill="none" stroke="none" stroke-width="1" stroke-linejoin="miter"/><path d="M3.84,188.16v-184.32h184.32v184.32z" fill="none" stroke="none" stroke-width="1" stroke-linejoin="miter"/><path d="M0,192v-192h192v192z" fill="none" stroke="none" stroke-width="1" stroke-linejoin="miter"/><path d="M3.84,188.16v-184.32h184.32v184.32z" fill="none" stroke="none" stroke-width="1" stroke-linejoin="miter"/><path d="M0,192v-192h192v192z" fill="none" stroke="none" stroke-width="1" stroke-linejoin="miter"/><path d="M3.84,188.16v-184.32h184.32v184.32z" fill="none" stroke="none" stroke-width="1" stroke-linejoin="miter"/><path d="M0,192v-192h192v192z" fill="none" stroke="none" stroke-width="1" stroke-linejoin="miter"/><path d="M3.84,188.16v-184.32h184.32v184.32z" fill="none" stroke="none" stroke-width="1" stroke-linejoin="miter"/><path d="M0,192v-192h192v192z" fill="none" stroke="none" stroke-width="1" stroke-linejoin="miter"/><path d="M3.84,188.16v-184.32h184.32v184.32z" fill="none" stroke="none" stroke-width="1" stroke-linejoin="miter"/><path d="M0,192v-192h192v192z" fill="none" stroke="none" stroke-width="1" stroke-linejoin="miter"/><path d="M3.84,188.16v-184.32h184.32v184.32z" fill="none" stroke="none" stroke-width="1" stroke-linejoin="miter"/><path d="M0,192v-192h192v192z" fill="none" stroke="none" stroke-width="1" stroke-linejoin="miter"/><path d="M3.84,188.16v-184.32h184.32v184.32z" fill="none" stroke="none" stroke-width="1" stroke-linejoin="miter"/><path d="M0,192v-192h192v192z" fill="none" stroke="none" stroke-width="1" stroke-linejoin="miter"/><path d="M3.84,188.16v-184.32h184.32v184.32z" fill="none" stroke="none" stroke-width="1" stroke-linejoin="miter"/><path d="M0,192v-192h192v192z" fill="none" stroke="none" stroke-width="1" stroke-linejoin="miter"/><path d="M3.84,188.16v-184.32h184.32v184.32z" fill="none" stroke="none" stroke-width="1" stroke-linejoin="miter"/><path d="M0,192v-192h192v192z" fill="none" stroke="none" stroke-width="1" stroke-linejoin="miter"/><path d="M3.84,188.16v-184.32h184.32v184.32z" fill="none" stroke="none" stroke-width="1" stroke-linejoin="miter"/><path d="M0,192v-192h192v192z" fill="none" stroke="none" stroke-width="1" stroke-linejoin="miter"/><path d="M3.84,188.16v-184.32h184.32v184.32z" fill="none" stroke="none" stroke-width="1" stroke-linejoin="miter"/><path d="M0,192v-192h192v192z" fill="none" stroke="none" stroke-width="1" stroke-linejoin="miter"/><path d="M3.84,188.16v-184.32h184.32v184.32z" fill="none" stroke="none" stroke-width="1" stroke-linejoin="miter"/><path d="M0,192v-192h192v192z" fill="none" stroke="none" stroke-width="1" stroke-linejoin="miter"/><path d="M3.84,188.16v-184.32h184.32v184.32z" fill="none" stroke="none" stroke-width="1" stroke-linejoin="miter"/><path d="M0,192v-192h192v192z" fill="none" stroke="none" stroke-width="1" stroke-linejoin="miter"/><path d="M3.84,188.16v-184.32h184.32v184.32z" fill="none" stroke="none" stroke-width="1" stroke-linejoin="miter"/><path d="M0,192v-192h192v192z" fill="none" stroke="none" stroke-width="1" stroke-linejoin="miter"/><path d="M3.84,188.16v-184.32h184.32v184.32z" fill="none" stroke="none" stroke-width="1" stroke-linejoin="miter"/><path d="M0,192v-192h192v192z" fill="none" stroke="none" stroke-width="1" stroke-linejoin="miter"/><path d="M3.84,188.16v-184.32h184.32v184.32z" fill="none" stroke="none" stroke-width="1" stroke-linejoin="miter"/><path d="M0,192v-192h192v192z" fill="none" stroke="none" stroke-width="1" stroke-linejoin="miter"/><path d="M3.84,188.16v-184.32h184.32v184.32z" fill="none" stroke="none" stroke-width="1" stroke-linejoin="miter"/><path d="M0,192v-192h192v192z" fill="none" stroke="none" stroke-width="1" stroke-linejoin="miter"/><path d="M3.84,188.16v-184.32h184.32v184.32z" fill="none" stroke="none" stroke-width="1" stroke-linejoin="miter"/><path d="M0,192v-192h192v192z" fill="none" stroke="none" stroke-width="1" stroke-linejoin="miter"/><path d="M3.84,188.16v-184.32h184.32v184.32z" fill="none" stroke="none" stroke-width="1" stroke-linejoin="miter"/><path d="M0,192v-192h192v192z" fill="none" stroke="none" stroke-width="1" stroke-linejoin="miter"/><path d="M3.84,188.16v-184.32h184.32v184.32z" fill="none" stroke="none" stroke-width="1" stroke-linejoin="miter"/><path d="M0,192v-192h192v192z" fill="none" stroke="none" stroke-width="1" stroke-linejoin="miter"/><path d="M3.84,188.16v-184.32h184.32v184.32z" fill="none" stroke="none" stroke-width="1" stroke-linejoin="miter"/><path d="M0,192v-192h192v192z" fill="none" stroke="none" stroke-width="1" stroke-linejoin="miter"/><path d="M7.68,184.32v-176.64h176.64v176.64z" fill="none" stroke="none" stroke-width="1" stroke-linejoin="miter"/><path d="M0,192v-192h192v192z" fill="none" stroke="none" stroke-width="1" stroke-linejoin="miter"/><path d="M11.52,180.48v-168.96h168.96v168.96z" fill="none" stroke="none" stroke-width="1" stroke-linejoin="miter"/><path d="M0,192v-192h192v192z" fill="none" stroke="none" stroke-width="1" stroke-linejoin="miter"/><path d="M7.68,184.32v-176.64h176.64v176.64z" fill="none" stroke="none" stroke-width="1" stroke-linejoin="miter"/><path d="" fill="none" stroke="none" stroke-width="1" stroke-linejoin="miter"/><path d="" fill="none" stroke="none" stroke-width="1" stroke-linejoin="miter"/></g></g></svg>
